<?xml version="1.0" encoding="iso-8859-1"?>
<!-- Generator: Adobe Illustrator 19.0.0, SVG Export Plug-In . SVG Version: 6.00 Build 0)  -->
<svg version="1.1" id="Layer_1" xmlns="http://www.w3.org/2000/svg" xmlns:xlink="http://www.w3.org/1999/xlink" x="0px" y="0px"
	 viewBox="0 0 511.998 511.998" style="enable-background:new 0 0 511.998 511.998;" xml:space="preserve">
<path style="fill:#F4D853;" d="M423.187,340.19c2.25-6.077,1.863-12.817-1.064-18.598c-25.272-49.891-58.06-95.159-97.448-134.547
	c-39.302-39.306-84.484-72.005-134.284-97.19c-1.117-0.565-2.279-1.038-3.472-1.417c-11.515-3.652-23.91,2.115-28.535,13.278
	L1.774,479.818c-3.603,8.698-1.61,18.708,5.045,25.362c6.654,6.657,16.665,8.647,25.362,5.046L410.269,353.61
	C416.256,351.129,420.937,346.267,423.187,340.19z"/>
<g>
	<path style="fill:#E9A440;" d="M423.187,340.19c2.25-6.077,1.863-12.817-1.064-18.598c-25.244-49.834-57.987-95.057-97.316-134.414
		L6.812,505.174c0.002,0.003,0.005,0.005,0.008,0.006c6.654,6.657,16.665,8.647,25.362,5.046L410.269,353.61
		C416.256,351.129,420.937,346.267,423.187,340.19z"/>
	<path style="fill:#E9A440;" d="M510.224,304.834c2.363-5.703,2.363-12.111-0.002-17.811
		c-26.711-64.485-65.167-122.092-114.302-171.228C346.97,66.844,289.456,28.483,224.974,1.778
		c-11.874-4.918-25.488,0.72-30.408,12.593l-36.181,87.345c-2.493,6.018-2.349,12.806,0.397,18.714
		c2.231,4.797,6.01,8.659,10.671,10.995c45.367,22.954,86.518,52.738,122.311,88.533c35.903,35.903,65.791,77.173,88.839,122.668
		c1.139,2.254,2.602,4.243,4.302,5.944c6.49,6.49,16.455,8.73,25.364,5.042l87.362-36.179
		C503.331,315.067,507.861,310.536,510.224,304.834z"/>
</g>
<g>
	<path style="fill:#E07188;" d="M260.768,286.857c-16.396,16.388-42.981,16.392-59.376,0c-16.396-16.398-16.396-42.98,0-59.376
		c16.393-16.395,42.978-16.395,59.376,0C277.158,243.878,277.158,270.458,260.768,286.857z"/>
	<circle style="fill:#E07188;" cx="130.139" cy="322.476" r="41.983"/>
</g>
<path style="fill:#DC4161;" d="M278.577,399.663c-16.393,16.396-42.978,16.396-59.376,0c-16.39-16.393-16.39-42.978,0-59.374
	c16.396-16.393,42.981-16.392,59.376,0.002C294.974,356.685,294.974,383.269,278.577,399.663z"/>
<path style="fill:#E17858;" d="M510.224,304.834c2.363-5.703,2.363-12.111-0.002-17.811
	c-26.686-64.423-65.098-121.985-114.168-171.09L291.896,220.092c35.843,35.872,65.687,77.095,88.707,122.536
	c1.139,2.254,2.602,4.243,4.302,5.944c6.49,6.49,16.455,8.73,25.364,5.042l87.362-36.179
	C503.331,315.067,507.861,310.536,510.224,304.834z"/>
<path style="fill:#DC4161;" d="M260.768,286.857c12.171-12.176,15.293-29.964,9.391-45.031l-54.422,54.423
	C230.801,302.152,248.592,299.027,260.768,286.857z"/>
<g>
</g>
<g>
</g>
<g>
</g>
<g>
</g>
<g>
</g>
<g>
</g>
<g>
</g>
<g>
</g>
<g>
</g>
<g>
</g>
<g>
</g>
<g>
</g>
<g>
</g>
<g>
</g>
<g>
</g>
</svg>
